<?xml version="1.0" encoding="utf-8"?>
<!-- Generator: Adobe Illustrator 16.0.0, SVG Export Plug-In . SVG Version: 6.00 Build 0)  -->
<!DOCTYPE svg PUBLIC "-//W3C//DTD SVG 1.1//EN" "http://www.w3.org/Graphics/SVG/1.1/DTD/svg11.dtd">
<svg version="1.1" id="Calque_1" xmlns="http://www.w3.org/2000/svg" xmlns:xlink="http://www.w3.org/1999/xlink" x="0px" y="0px"
	 width="491.52px" height="491.52px" viewBox="0 0 491.52 491.52" enable-background="new 0 0 491.52 491.52" xml:space="preserve">
<g id="Layer_x0020_1">
	<g id="_370256688">
		<rect id="_370257000" x="0" y="0" fill="none" width="491.52" height="491.519"/>
		<rect id="_370256400" x="61.439" y="61.44" fill="none" width="368.639" height="368.64"/>
	</g>
	<path fill="#10CAB7" d="M245.756,76.801c-46.953,0-89.195,18.766-119.693,49.263c-30.498,30.498-49.264,72.74-49.264,119.694
		c0,46.955,18.766,89.199,49.263,119.697c30.498,30.5,72.741,49.266,119.693,49.266c5.746,0,11.167-2.549,15.179-6.561
		c4.014-4.014,6.563-9.436,6.563-15.18c0-3.027-0.336-5.576-1.189-7.805c-0.838-2.188-2.244-4.271-4.414-6.451l-0.99-1.199
		l-0.199-0.307c-4.389-6.691-8.809-13.432-8.809-23.426c0-9.961,4.305-19.281,11.076-26.082
		c6.773-6.803,16.055-11.137,26.018-11.137h35.264c25.398,0,48.021-9.924,64.281-26.184s26.186-38.883,26.186-64.281
		c0-41-18.74-78.311-49.178-105.362C335.022,93.625,292.764,76.801,245.756,76.801L245.756,76.801z M115.202,115.204
		C148.486,81.92,194.563,61.44,245.756,61.44c50.895,0,96.758,18.317,129.985,47.846c33.633,29.89,54.338,71.252,54.338,116.822
		c0,29.638-11.631,56.089-30.684,75.142c-19.055,19.055-45.504,30.684-75.143,30.684H288.99c-5.746,0-11.158,2.561-15.158,6.576
		c-4.021,4.037-6.576,9.504-6.576,15.283c0,5.338,3.041,10.072,6.117,14.766c3.43,3.58,5.76,7.203,7.273,11.156
		c1.588,4.143,2.209,8.438,2.209,13.264c0,9.984-4.297,19.273-11.063,26.041c-6.764,6.764-16.053,11.061-26.038,11.061
		c-51.193,0-97.27-20.48-130.554-53.766c-33.283-33.283-53.764-79.361-53.764-130.557
		C61.438,194.564,81.919,148.487,115.202,115.204L115.202,115.204z"/>
	<path fill="#10CAB7" d="M122.665,201.164c4.014-4.013,9.437-6.562,15.18-6.562c5.737,0,11.16,2.551,15.177,6.567
		c4.013,4.013,6.564,9.432,6.564,15.174c0,5.738-2.552,11.156-6.564,15.168c-4.017,4.015-9.439,6.565-15.177,6.565
		c-5.744,0-11.165-2.548-15.179-6.561c-4.013-4.012-6.562-9.431-6.562-15.173C116.104,210.597,118.653,205.177,122.665,201.164
		L122.665,201.164z M174.946,216.343c0-9.984-4.301-19.27-11.064-26.033c-6.769-6.769-16.063-11.068-26.037-11.068
		c-9.983,0-19.273,4.297-26.039,11.063c-6.765,6.764-11.062,16.052-11.062,26.039c0,9.982,4.298,19.27,11.063,26.033
		c6.766,6.765,16.056,11.062,26.038,11.062c9.975,0,19.268-4.299,26.036-11.066C170.644,235.608,174.946,226.323,174.946,216.343
		L174.946,216.343z"/>
	<path fill="#10CAB7" d="M181.511,122.673c4.017-4.017,9.439-6.568,15.175-6.568c5.743,0,11.165,2.55,15.178,6.563
		c4.014,4.013,6.563,9.435,6.563,15.178c0,5.736-2.552,11.159-6.568,15.175c-4.014,4.013-9.433,6.565-15.173,6.565
		c-5.732,0-11.153-2.555-15.17-6.571c-4.017-4.017-6.57-9.438-6.57-15.17C174.946,132.106,177.498,126.687,181.511,122.673
		L181.511,122.673z M233.788,137.846c0-9.983-4.298-19.272-11.063-26.038c-6.765-6.766-16.055-11.063-26.038-11.063
		c-9.974,0-19.267,4.3-26.035,11.068c-6.765,6.764-11.065,16.052-11.065,26.033c0,9.972,4.304,19.262,11.071,26.03
		c6.767,6.768,16.058,11.071,26.029,11.071c9.981,0,19.269-4.301,26.033-11.066C229.487,157.113,233.788,147.82,233.788,137.846
		L233.788,137.846z"/>
	<path fill="#10CAB7" d="M331.934,137.846c0-9.983-4.299-19.273-11.064-26.038s-16.055-11.063-26.037-11.063
		c-9.975,0-19.268,4.3-26.035,11.069c-6.764,6.765-11.066,16.052-11.066,26.033c0,9.972,4.305,19.262,11.072,26.029
		s16.057,11.071,26.029,11.071c9.98,0,19.268-4.302,26.031-11.066C327.633,157.113,331.934,147.82,331.934,137.846L331.934,137.846z
		 M273.092,137.846c0-5.74,2.551-11.159,6.564-15.173c4.018-4.016,9.439-6.568,15.176-6.568c5.742,0,11.164,2.55,15.178,6.563
		s6.563,9.435,6.563,15.178c0,5.736-2.553,11.159-6.568,15.175c-4.014,4.013-9.434,6.565-15.172,6.565
		c-5.732,0-11.154-2.555-15.17-6.571C275.647,148.999,273.092,143.579,273.092,137.846L273.092,137.846z"/>
	<path fill="#10CAB7" d="M379.819,190.335c-6.783-6.783-16.092-11.093-26.025-11.093c-9.963,0-19.283,4.304-26.086,11.079
		c-6.801,6.774-11.135,16.057-11.135,26.022c0,9.963,4.334,19.244,11.137,26.018c6.801,6.772,16.121,11.077,26.084,11.077
		c9.914,0,19.211-4.311,25.994-11.092c6.777-6.775,11.105-16.051,11.105-26.003C390.893,206.368,386.576,197.094,379.819,190.335
		L379.819,190.335z M338.508,201.181c4.039-4.022,9.504-6.578,15.283-6.578c5.705,0,11.137,2.562,15.166,6.593
		c4.014,4.013,6.576,9.421,6.576,15.147c0,5.744-2.553,11.15-6.547,15.143c-4.031,4.031-9.471,6.592-15.193,6.592
		c-5.781,0-11.246-2.556-15.285-6.576c-4.016-4-6.574-9.412-6.574-15.158C331.934,210.595,334.492,205.181,338.508,201.181
		L338.508,201.181z"/>
</g>
</svg>
