<?xml version="1.0" encoding="utf-8"?>
<!-- Generator: Adobe Illustrator 16.0.0, SVG Export Plug-In . SVG Version: 6.00 Build 0)  -->
<!DOCTYPE svg PUBLIC "-//W3C//DTD SVG 1.1//EN" "http://www.w3.org/Graphics/SVG/1.1/DTD/svg11.dtd">
<svg version="1.1" id="Calque_1" xmlns="http://www.w3.org/2000/svg" xmlns:xlink="http://www.w3.org/1999/xlink" x="0px" y="0px"
	 width="595.279px" height="841.89px" viewBox="0 0 595.279 841.89" enable-background="new 0 0 595.279 841.89"
	 xml:space="preserve">
<g id="_x35_">
	<path id="_x3C_Path_x3E__4_" fill="#00CCCC" d="M488.492,198.52H106.797L0,353.372l297.64,289.999l297.64-290.004L488.492,198.52z
		 M306.415,228.837L393.48,336.28H208.617l89.539-107.443H306.415z M332.431,228.837h130.231l-46.385,103.467L332.431,228.837z
		 M400.419,366.598L297.887,583.136l-97.171-216.539H400.419z M185.021,333.039l-51.497-104.202h138.329L185.021,333.039z
		 M164.078,336.285H48.617l67.267-97.528L164.078,336.285z M178.571,366.598l94.421,210.431L57.031,366.598H178.571z
		 M421.031,370.276l0.241,0.298l1.781-3.977h115.196l-214.38,208.888L421.031,370.276z M436.643,336.28l43.344-96.687l66.681,96.687
		H436.643z"/>
</g>
<g id="Layer_1">
</g>
</svg>
