<?xml version="1.0" encoding="utf-8"?>
<!-- Generator: Adobe Illustrator 16.0.0, SVG Export Plug-In . SVG Version: 6.00 Build 0)  -->
<!DOCTYPE svg PUBLIC "-//W3C//DTD SVG 1.1//EN" "http://www.w3.org/Graphics/SVG/1.1/DTD/svg11.dtd">
<svg version="1.1" id="Calque_1" xmlns="http://www.w3.org/2000/svg" xmlns:xlink="http://www.w3.org/1999/xlink" x="0px" y="0px"
	 width="595.279px" height="841.89px" viewBox="0 0 595.279 841.89" enable-background="new 0 0 595.279 841.89"
	 xml:space="preserve">
<title>idea android app aplication phone</title>
<g id="idea_android_app_aplication_phone">
	<path fill="#10CAB7" d="M409.255,519.166v-42.412c82.19-61.644,98.849-178.245,37.205-260.436
		c-61.644-82.191-178.244-98.848-260.436-37.205c-82.19,61.644-98.848,178.244-37.205,260.436
		c10.577,14.102,23.104,26.629,37.205,37.205v42.412c-11.441,6.607-18.522,18.785-18.603,31.998v37.203
		c0,20.549,16.657,37.205,37.205,37.205h1.86c10.223,50.344,59.319,82.867,109.661,72.645c36.604-7.434,65.211-36.041,72.644-72.645
		h1.86c20.548,0,37.205-16.656,37.205-37.205v-37.203C427.778,537.951,420.698,525.773,409.255,519.166z M148.82,327.933
		c-0.049-82.191,66.54-148.86,148.731-148.91c82.19-0.049,148.859,66.54,148.909,148.731c0.029,49.771-24.823,96.263-66.226,123.886
		c-5.126,3.465-8.194,9.252-8.185,15.439v46.879H223.23V467.08c0.01-6.188-3.059-11.975-8.185-15.439
		C173.696,424.052,148.85,377.64,148.82,327.933z M297.64,662.777c-23.661,0.014-44.758-14.896-52.645-37.205h105.29
		C342.398,647.88,321.301,662.791,297.64,662.777z M204.627,588.367v-37.203h186.025v37.203H204.627z"/>
	<path fill="#10CAB7" d="M265.829,396.948c7.235,7.294,19.014,7.343,26.309,0.108c0.036-0.036,0.071-0.072,0.107-0.108l74.41-74.41
		c7.294-7.294,7.294-19.121,0-26.416c-7.295-7.294-19.121-7.294-26.416,0l-61.202,61.389l-23.997-24.184
		c-7.294-7.294-19.121-7.294-26.415,0c-7.295,7.294-7.295,19.121,0,26.416L265.829,396.948z"/>
</g>
</svg>
