<?xml version="1.0" encoding="utf-8"?>
<!-- Generator: Adobe Illustrator 16.0.0, SVG Export Plug-In . SVG Version: 6.00 Build 0)  -->
<!DOCTYPE svg PUBLIC "-//W3C//DTD SVG 1.1//EN" "http://www.w3.org/Graphics/SVG/1.1/DTD/svg11.dtd">
<svg version="1.1" id="Calque_1" xmlns="http://www.w3.org/2000/svg" xmlns:xlink="http://www.w3.org/1999/xlink" x="0px" y="0px"
	 width="595.279px" height="841.89px" viewBox="0 0 595.279 841.89" enable-background="new 0 0 595.279 841.89"
	 xml:space="preserve">
<title>Artboard-1</title>
<g id="G._Design">
	
		<rect x="99.947" y="549.281" transform="matrix(-0.7071 0.7071 -0.7071 -0.7071 618.028 961.3382)" fill="#10CAB7" width="19.954" height="118.759"/>
	
		<rect x="79.76" y="419.714" transform="matrix(-0.7071 0.7071 -0.7071 -0.7071 860.5227 535.6029)" fill="#10CAB7" width="479.148" height="52.616"/>
	
		<rect x="32.991" y="372.942" transform="matrix(-0.7071 0.7071 -0.7071 -0.7071 747.61 488.831)" fill="#10CAB7" width="479.147" height="52.617"/>
	<path fill="#10CAB7" d="M557.593,244.968c23.216-23.163,23.258-60.76,0.096-83.976c-23.163-23.216-60.761-23.258-83.977-0.096
		c-0.031,0.032-0.063,0.064-0.095,0.096l-17.011,17.01l83.976,83.976L557.593,244.968z"/>
	
		<rect x="471.996" y="177.231" transform="matrix(-0.7071 0.7071 -0.7071 -0.7071 990.0898 63.1126)" fill="#10CAB7" width="19.955" height="118.759"/>
	<path fill="#10CAB7" d="M20.601,689.509c-1.115,3.566,0.871,7.359,4.437,8.475c1.315,0.412,2.724,0.412,4.039,0l104.326-32.605
		l-80.199-80.195L20.601,689.509z"/>
	<path fill="#10CAB7" d="M66.245,277.489c2.688-2.595,6.97-2.521,9.564,0.166c2.532,2.622,2.532,6.778,0,9.399l-31.86,31.861
		l24.257,24.257l31.861-31.861c2.687-2.596,6.97-2.521,9.564,0.166c2.532,2.622,2.532,6.777,0,9.399l-31.86,31.861l24.257,24.257
		l31.86-31.861c2.688-2.595,6.97-2.521,9.565,0.166c2.532,2.622,2.532,6.778,0,9.399l-31.861,31.861l24.258,24.257l31.86-31.861
		c2.688-2.596,6.97-2.521,9.565,0.166c2.532,2.622,2.532,6.777,0,9.399l-31.861,31.861l24.849,24.848l114.997-114.998
		l-166.272-166.34L8.726,274.087c-2.638,2.658-2.638,6.947,0,9.605l25.657,25.658L66.245,277.489z"/>
	<path fill="#10CAB7" d="M321.925,293.568L160.387,132.031c-2.658-2.638-6.946-2.638-9.605,0l-22.255,22.323l166.34,166.273
		L321.925,293.568z"/>
	<path fill="#10CAB7" d="M586.554,558.199L425.016,396.66l-27.058,27.058l166.272,166.34l22.323-22.254
		c2.716-2.609,2.911-6.813,0.303-9.527C586.793,558.21,586.729,558.146,586.554,558.199z"/>
	<path fill="#10CAB7" d="M273.356,548.322l24.845,24.846l31.861-31.861c2.687-2.596,6.97-2.521,9.565,0.166
		c2.532,2.621,2.532,6.777,0,9.4l-31.861,31.859l24.257,24.258l31.861-31.861c2.596-2.688,6.878-2.762,9.564-0.166
		c2.688,2.596,2.762,6.879,0.166,9.566c-0.054,0.055-0.109,0.111-0.166,0.166l-31.86,31.859l24.257,24.258l31.861-31.861
		c2.595-2.688,6.878-2.762,9.564-0.166c2.688,2.596,2.762,6.879,0.166,9.566c-0.055,0.055-0.109,0.111-0.166,0.164l-31.86,31.861
		l24.257,24.258l31.86-31.861c2.596-2.688,6.878-2.762,9.565-0.166s2.762,6.879,0.166,9.564c-0.055,0.057-0.109,0.113-0.166,0.166
		l-31.861,31.861l25.661,25.66c2.667,2.615,6.938,2.615,9.605,0l110.194-110.262l-166.34-166.273L273.356,548.322z"/>
</g>
</svg>
