<?xml version="1.0" encoding="utf-8"?>
<!-- Generator: Adobe Illustrator 16.0.0, SVG Export Plug-In . SVG Version: 6.00 Build 0)  -->
<!DOCTYPE svg PUBLIC "-//W3C//DTD SVG 1.1//EN" "http://www.w3.org/Graphics/SVG/1.1/DTD/svg11.dtd">
<svg version="1.1" id="Calque_1" xmlns="http://www.w3.org/2000/svg" xmlns:xlink="http://www.w3.org/1999/xlink" x="0px" y="0px"
	 width="595.279px" height="841.89px" viewBox="0 0 595.279 841.89" enable-background="new 0 0 595.279 841.89"
	 xml:space="preserve">
<g id="square">
	<path fill="#10CAB7" d="M558.075,251.104v-50.971c-0.103-21.841-17.782-39.521-39.624-39.624h-50.971
		c-20.973-0.039-38.344,16.271-39.623,37.205H167.422c-1.279-20.934-18.65-37.244-39.623-37.205H76.828
		c-21.841,0.102-39.521,17.782-39.623,39.624v50.971c0.102,21.841,17.782,39.521,39.623,39.624h50.971
		c21.841-0.102,39.521-17.782,39.623-39.624V234.92h260.436v16.184c0.102,21.841,17.782,39.521,39.623,39.624h16.185v260.436
		h-16.185c-21.841,0.102-39.521,17.781-39.623,39.623v50.971c0.102,21.84,17.782,39.521,39.623,39.623h50.971
		c21.841-0.102,39.521-17.783,39.624-39.623v-50.971c0.039-20.973-16.271-38.344-37.205-39.623V290.728
		C541.804,289.447,558.115,272.077,558.075,251.104z M130.218,251.104c0,1.336-1.083,2.418-2.419,2.418l0,0H76.828
		c-1.336,0-2.418-1.083-2.418-2.418l0,0v-50.971c0-1.335,1.082-2.418,2.418-2.418l0,0h50.971c1.336,0,2.419,1.083,2.419,2.418l0,0
		V251.104z M465.063,251.104v-50.971c0-1.335,1.082-2.418,2.418-2.418h50.971c1.336,0,2.419,1.083,2.419,2.418v50.971
		c0,1.336-1.083,2.418-2.419,2.418h-50.971C466.145,253.522,465.063,252.44,465.063,251.104z M520.87,641.757
		c0,1.336-1.083,2.418-2.419,2.418h-50.971c-1.336,0-2.418-1.082-2.418-2.418v-50.971c0-1.336,1.082-2.42,2.418-2.42h50.971
		c1.336,0,2.419,1.084,2.419,2.42V641.757z"/>
	<path fill="#10CAB7" d="M372.05,606.97H167.422v-16.184c-0.102-21.842-17.782-39.521-39.623-39.623h-16.184V346.535
		c0-10.274-8.329-18.603-18.603-18.603c-10.274,0-18.603,8.329-18.603,18.603v204.628c-20.862,1.275-37.146,18.535-37.205,39.436
		v50.973c-0.001,21.912,17.71,39.705,39.623,39.809h50.971c20.973,0.039,38.344-16.271,39.623-37.205H372.05
		c10.273,0,18.603-8.328,18.603-18.604C390.653,615.298,382.323,606.97,372.05,606.97z M130.218,641.757
		c0,1.336-1.083,2.418-2.419,2.418H76.828c-1.336,0-2.418-1.082-2.418-2.418v-50.971c0-1.336,1.082-2.42,2.418-2.42h50.971
		c1.336,0,2.419,1.084,2.419,2.42V641.757z"/>
</g>
</svg>
