<?xml version="1.0" encoding="utf-8"?>
<!-- Generator: Adobe Illustrator 16.0.0, SVG Export Plug-In . SVG Version: 6.00 Build 0)  -->
<!DOCTYPE svg PUBLIC "-//W3C//DTD SVG 1.1//EN" "http://www.w3.org/Graphics/SVG/1.1/DTD/svg11.dtd">
<svg version="1.1" id="Calque_1" xmlns="http://www.w3.org/2000/svg" xmlns:xlink="http://www.w3.org/1999/xlink" x="0px" y="0px"
	 width="595.279px" height="841.89px" viewBox="0 0 595.279 841.89" enable-background="new 0 0 595.279 841.89"
	 xml:space="preserve">
<title>diamond</title>
<g id="Layer_2">
	<g id="diamond">
		<path fill="#10CAB7" d="M593.043,375.511c3.483-4.56,2.73-11.06-1.705-14.701L443.051,238.622
			c-1.917-1.588-4.329-2.455-6.817-2.45H147.649c-2.627-0.022-5.168,0.926-7.138,2.663L3.516,361.023
			c-4.109,3.659-4.756,9.845-1.492,14.275l281.448,382.223l0,0c3.682,4.59,10.387,5.324,14.976,1.643
			c0.605-0.486,1.156-1.037,1.643-1.643l0,0l0,0l0,0L593.043,375.511z M166.93,379.665l95.875,315.004L31.958,379.666
			L166.93,379.665z M328,257.478l61.573,100.882H194.414l61.254-100.882H328z M563.109,379.666L319.584,697.972l96.941-318.307
			H563.109z M394.155,379.666L291.888,714.697L189.62,379.665L394.155,379.666z M554.906,358.36H414.608l-61.573-100.882h79.471
			L554.906,358.36z M151.697,257.478h79.257L169.38,358.36H38.564L151.697,257.478z"/>
		<path fill="#10CAB7" d="M292.101,166.715c5.883,0,10.652-4.77,10.652-10.653V90.761c0-5.884-4.77-10.653-10.652-10.653
			c-5.884,0-10.653,4.77-10.653,10.653v65.302C281.448,161.946,286.217,166.715,292.101,166.715z"/>
		<path fill="#10CAB7" d="M196.758,173.213c3.471,4.766,10.148,5.815,14.914,2.344s5.814-10.148,2.344-14.914l-41.12-56.566
			c-3.472-4.766-10.148-5.815-14.914-2.344s-5.815,10.148-2.344,14.914L196.758,173.213z"/>
		<path fill="#10CAB7" d="M374.553,177.581c3.521,0.113,6.872-1.521,8.949-4.368l41.119-56.566
			c3.472-4.766,2.422-11.443-2.344-14.914c-4.765-3.471-11.442-2.422-14.913,2.344l-41.44,56.566
			c-3.471,4.75-2.434,11.415,2.316,14.886C370.073,176.868,372.284,177.587,374.553,177.581z"/>
	</g>
</g>
</svg>
