<?xml version="1.0" encoding="utf-8"?>
<!-- Generator: Adobe Illustrator 16.0.0, SVG Export Plug-In . SVG Version: 6.00 Build 0)  -->
<!DOCTYPE svg PUBLIC "-//W3C//DTD SVG 1.1//EN" "http://www.w3.org/Graphics/SVG/1.1/DTD/svg11.dtd">
<svg version="1.1" id="Calque_1" xmlns="http://www.w3.org/2000/svg" xmlns:xlink="http://www.w3.org/1999/xlink" x="0px" y="0px"
	 width="595.279px" height="841.89px" viewBox="0 0 595.279 841.89" enable-background="new 0 0 595.279 841.89"
	 xml:space="preserve">
<title>47.World</title>
<g id="_47.World">
	<path fill="#10CAB7" d="M297.64,718.585C133.258,718.585,0,585.328,0,420.945s133.258-297.641,297.64-297.641
		s297.64,133.258,297.64,297.641C595.103,585.253,461.948,718.408,297.64,718.585z M297.64,172.912
		c-136.984,0-248.033,111.048-248.033,248.034c0,136.986,111.049,248.033,248.033,248.033
		c136.985,0,248.033-111.047,248.033-248.033C545.523,284.022,434.563,173.062,297.64,172.912z"/>
	<polygon fill="#10CAB7" points="116.749,612.105 81.677,577.033 113.748,544.962 163.355,544.962 198.427,509.89 198.427,415.091 
		223.23,365.485 223.23,327.585 207.902,296.928 166.108,296.928 85.448,243.155 112.979,201.882 181.139,247.322 238.559,247.322 
		272.837,315.878 272.837,377.192 248.033,426.798 248.033,530.427 183.892,594.568 134.285,594.568 	"/>
	<polygon fill="#10CAB7" points="404.12,686.515 322.444,604.837 322.444,559.496 372.05,509.89 372.05,501.208 347.246,451.601 
		347.246,385.873 401.268,331.852 418.73,296.928 393.926,247.322 424.261,186.628 468.659,208.802 449.387,247.322 474.19,296.928 
		442.045,361.219 396.854,406.41 396.854,439.894 421.656,489.501 421.656,530.427 372.05,580.035 372.05,584.3 439.193,651.443 	
		"/>
</g>
</svg>
