<svg xmlns="http://www.w3.org/2000/svg" viewBox="0 0 700 700"><g id="play_rectangle"><path d="M366.19909,166.65482A183.75367,183.75367,0,0,0,170.92348,361.93776c5.78,91.43742,79.98024,165.63183,171.41737,171.40742A183.75308,183.75308,0,0,0,537.61676,338.06253C531.83648,246.62365,457.63944,172.43071,366.19909,166.65482Z" style="fill:#fff"/><path d="M593.973,101.06479H106.027A81.26535,81.26535,0,0,0,25,182.09174V517.90826a81.26535,81.26535,0,0,0,81.027,81.02695H593.973A81.26535,81.26535,0,0,0,675,517.90826V182.09174A81.26535,81.26535,0,0,0,593.973,101.06479ZM342.34085,533.34518c-91.43713-5.77559-165.63739-79.97-171.41737-171.40742A183.75367,183.75367,0,0,1,366.19909,166.65482c91.44035,5.77589,165.63739,79.96883,171.41767,171.40771A183.75308,183.75308,0,0,1,342.34085,533.34518Z" style="fill:#ff4747"/><path d="M440.769,339.83173l-147.8722-88.83092c-.03075-.017-.0615-.03573-.092-.05623-5.0074-2.90844-11.27,1.33371-11.27,7.12335v183.865c0,5.78994,6.26263,10.0318,11.27,7.1216.03046-.01874.06121-.03573.092-.05594L440.769,360.16769C450.07972,354.5766,450.07972,345.42428,440.769,339.83173Z" style="fill:#ff4747"/></g></svg>